# Blender 3.1.0
# www.blender.org
o Cube
v 0.047387 0.084959 -3.676244
v 0.047387 -0.021431 -3.676244
v 0.044859 0.049448 -0.035527
v 0.044859 -0.040270 -0.035527
v -0.047387 0.084959 -3.676244
v -0.047387 -0.021431 -3.676244
v -0.044859 0.049448 -0.035527
v -0.044859 -0.040270 -0.035527
v -0.079059 -0.070367 -0.936020
v 0.079059 0.091623 -0.936020
v -0.079059 0.091623 -0.936020
v 0.079059 -0.070367 -0.936020
v -0.075415 -0.069095 -0.456583
v -0.066867 -0.061765 -0.189323
v -0.055333 -0.050680 -0.070207
v 0.027794 -0.026618 -3.845259
v 0.000000 -0.029125 -3.930158
v -0.027794 -0.026618 -3.845259
v 0.052671 0.064399 -3.845259
v 0.055197 0.033749 -3.930158
v 0.052671 0.001771 -3.845259
v -0.049610 -0.021672 -0.027523
v -0.051856 0.004589 -0.023503
v -0.049610 0.030850 -0.027523
v 0.049610 0.030850 -0.027523
v 0.051856 0.004589 -0.023503
v 0.049610 -0.021672 -0.027523
v -0.052671 0.064399 -3.845259
v -0.055197 0.033749 -3.930158
v -0.052671 0.001771 -3.845259
v 0.026261 0.054199 -0.027523
v -0.000000 0.056445 -0.023503
v -0.026261 0.054199 -0.027523
v 0.075415 0.083368 -0.456583
v 0.066867 0.072453 -0.189323
v 0.055333 0.060047 -0.070207
v -0.026261 -0.045021 -0.027523
v -0.000000 -0.047267 -0.023503
v 0.026261 -0.045021 -0.027523
v -0.076631 0.096293 -1.650959
v -0.069012 0.096495 -2.462899
v -0.057892 0.091833 -3.198169
v -0.027794 0.092788 -3.845259
v 0.000000 0.096623 -3.930158
v 0.027794 0.092788 -3.845259
v 0.076631 -0.064190 -1.650960
v 0.069012 -0.051867 -2.462899
v 0.057892 -0.035771 -3.198169
v -0.057892 -0.035771 -3.198169
v -0.069012 -0.051867 -2.462899
v -0.076631 -0.064190 -1.650959
v 0.057892 0.091833 -3.198169
v 0.069012 0.096495 -2.462899
v 0.076631 0.096293 -1.650960
v -0.055333 0.060047 -0.070207
v -0.066867 0.072453 -0.189323
v -0.075415 0.083368 -0.456583
v 0.055333 -0.050680 -0.070207
v 0.066867 -0.061765 -0.189323
v 0.075415 -0.069095 -0.456583
v 0.101295 0.054922 -0.936020
v 0.108707 0.010628 -0.936020
v 0.101295 -0.033666 -0.936020
v 0.043236 -0.093147 -0.936020
v -0.000000 -0.100741 -0.936020
v -0.043236 -0.093147 -0.936020
v -0.101295 0.054922 -0.936020
v -0.108707 0.010628 -0.936020
v -0.101295 -0.033666 -0.936020
v -0.043236 0.114403 -0.936020
v -0.000000 0.121996 -0.936020
v 0.043236 0.114403 -0.936020
v 0.041253 0.104767 -0.456509
v -0.000000 0.111887 -0.456435
v -0.041253 0.104767 -0.456509
v 0.036655 0.090996 -0.188731
v -0.000000 0.097073 -0.188138
v -0.036655 0.090996 -0.188731
v 0.030721 0.074078 -0.067993
v -0.000000 0.078489 -0.066055
v -0.030721 0.074078 -0.067993
v 0.026068 -0.021479 -0.010398
v 0.026754 0.004589 -0.004600
v 0.026068 0.030657 -0.010398
v -0.000000 -0.022165 -0.004600
v -0.000000 0.004589 0.001729
v -0.000000 0.031343 -0.004600
v -0.026068 -0.021479 -0.010398
v -0.026754 0.004589 -0.004600
v -0.026068 0.030657 -0.010399
v -0.098146 -0.027825 -1.652524
v -0.105307 0.016076 -1.654089
v -0.098146 0.059953 -1.652524
v -0.088126 -0.018212 -2.475416
v -0.094405 0.022510 -2.487933
v -0.088126 0.063036 -2.475416
v -0.072708 -0.006941 -3.244939
v -0.077416 0.028716 -3.285861
v -0.072708 0.063734 -3.244939
v -0.041253 -0.090494 -0.456509
v -0.000000 -0.097614 -0.456435
v 0.041253 -0.090494 -0.456509
v -0.036655 -0.080308 -0.188731
v -0.000000 -0.086386 -0.188138
v 0.036655 -0.080308 -0.188731
v -0.030721 -0.064711 -0.067993
v -0.000000 -0.069123 -0.066055
v 0.030721 -0.064711 -0.067993
v 0.096584 -0.034563 -0.456509
v 0.103627 0.007137 -0.456435
v 0.096584 0.048837 -0.456509
v 0.085342 -0.031444 -0.188731
v 0.091397 0.005344 -0.188138
v 0.085342 0.042132 -0.188731
v 0.069356 -0.026054 -0.067993
v 0.073764 0.004683 -0.066055
v 0.069356 0.035421 -0.067993
v -0.027877 0.003880 -4.206908
v -0.028726 0.036870 -4.329357
v -0.027877 0.067945 -4.206908
v 0.000000 0.003615 -4.329357
v 0.000000 0.037914 -4.463019
v -0.000000 0.070125 -4.329357
v 0.027877 0.003880 -4.206908
v 0.028726 0.036870 -4.329357
v 0.027877 0.067945 -4.206908
v 0.072708 -0.006941 -3.244939
v 0.077416 0.028716 -3.285861
v 0.072708 0.063734 -3.244939
v 0.088126 -0.018212 -2.475416
v 0.094405 0.022510 -2.487933
v 0.088126 0.063036 -2.475416
v 0.098146 -0.027825 -1.652524
v 0.105307 0.016076 -1.654089
v 0.098146 0.059953 -1.652524
v -0.032116 -0.052050 -3.244939
v -0.000000 -0.057128 -3.285861
v 0.032116 -0.052050 -3.244939
v -0.037819 -0.072419 -2.475416
v 0.000000 -0.079138 -2.487933
v 0.037819 -0.072419 -2.475416
v -0.041917 -0.086719 -1.652524
v 0.000000 -0.094212 -1.654089
v 0.041917 -0.086719 -1.652524
v -0.069356 -0.026054 -0.067993
v -0.073764 0.004683 -0.066055
v -0.069356 0.035421 -0.067993
v -0.085342 -0.031444 -0.188731
v -0.091397 0.005344 -0.188138
v -0.085342 0.042132 -0.188731
v -0.096584 -0.034563 -0.456509
v -0.103627 0.007137 -0.456435
v -0.096584 0.048837 -0.456509
v 0.032116 0.108843 -3.244939
v 0.000000 0.114561 -3.285861
v -0.032116 0.108843 -3.244939
v 0.037819 0.117243 -2.475416
v -0.000000 0.124158 -2.487933
v -0.037819 0.117243 -2.475416
v 0.041917 0.118847 -1.652524
v -0.000000 0.126364 -1.654089
v -0.041917 0.118847 -1.652524
vn 0.3567 0.9335 0.0370
vn -0.0000 0.9993 0.0378
vn -0.0000 0.9948 0.1017
vn 0.3474 0.9324 0.0998
vn -0.3567 0.9335 0.0370
vn -0.3474 0.9324 0.0998
vn -0.0000 0.9512 0.3086
vn 0.3212 0.9012 0.2908
vn -0.3212 0.9012 0.2908
vn 0.7154 0.6987 0.0098
vn 0.3621 0.9320 0.0126
vn 0.7107 0.7027 0.0345
vn -0.0000 0.9999 0.0135
vn -0.3621 0.9320 0.0126
vn -0.7154 0.6987 0.0098
vn -0.7107 0.7027 0.0345
vn -0.7054 0.7022 0.0966
vn -0.6809 0.6795 0.2733
vn -0.6023 0.6017 0.5247
vn -0.3170 0.7133 0.6251
vn -0.0000 0.7565 0.6540
vn 0.3170 0.7133 0.6251
vn 0.6809 0.6795 0.2733
vn 0.6023 0.6017 0.5247
vn 0.7054 0.7022 0.0966
vn 0.3746 -0.3746 0.8481
vn 0.4118 -0.0000 0.9113
vn -0.0000 -0.0000 1.0000
vn -0.0000 -0.4118 0.9113
vn 0.3746 0.3746 0.8481
vn -0.0000 0.4118 0.9113
vn -0.4118 -0.0000 0.9113
vn -0.3746 -0.3746 0.8481
vn -0.3746 0.3746 0.8481
vn 0.6026 -0.6027 0.5231
vn 0.7143 -0.3171 0.6239
vn 0.3170 -0.7144 0.6237
vn 0.7573 -0.0001 0.6530
vn 0.7139 0.3168 0.6244
vn -0.7139 0.3168 0.6244
vn -0.7573 -0.0001 0.6530
vn -0.7143 -0.3171 0.6239
vn -0.3170 -0.7144 0.6237
vn -0.6026 -0.6027 0.5231
vn -0.0000 -0.7576 0.6527
vn -0.9400 -0.3410 -0.0111
vn -1.0000 -0.0000 -0.0089
vn -0.9998 -0.0000 -0.0178
vn -0.9424 -0.3340 -0.0195
vn -0.9400 0.3410 -0.0059
vn -0.9424 0.3341 -0.0143
vn -0.9995 -0.0000 -0.0314
vn -0.9443 -0.3278 -0.0295
vn -0.9444 0.3279 -0.0244
vn -0.7154 -0.6987 -0.0006
vn -0.9379 -0.3470 0.0009
vn -0.7218 -0.6920 -0.0128
vn -1.0000 -0.0000 0.0030
vn -0.9379 0.3470 0.0060
vn -0.7219 0.6920 -0.0022
vn -0.7292 0.6842 -0.0102
vn -0.7358 0.6770 -0.0176
vn -0.7420 0.6698 -0.0279
vn -0.9019 0.4297 -0.0435
vn -0.9980 -0.0000 -0.0632
vn -0.9017 -0.4295 -0.0501
vn -0.7356 -0.6768 -0.0281
vn -0.7418 -0.6696 -0.0384
vn -0.7291 -0.6841 -0.0207
vn -0.3567 -0.9339 0.0240
vn -0.0000 -0.9997 0.0239
vn -0.0000 -0.9960 0.0898
vn -0.3474 -0.9335 0.0886
vn 0.3567 -0.9339 0.0240
vn 0.3474 -0.9335 0.0886
vn -0.0000 -0.9533 0.3019
vn -0.3212 -0.9033 0.2843
vn 0.3212 -0.9033 0.2843
vn -0.3621 -0.9321 -0.0013
vn -0.7108 -0.7029 0.0248
vn -0.0000 -1.0000 -0.0014
vn 0.3621 -0.9321 -0.0013
vn 0.7154 -0.6987 -0.0006
vn 0.7108 -0.7029 0.0248
vn 0.7059 -0.7028 0.0882
vn 0.6815 -0.6809 0.2682
vn -0.6815 -0.6809 0.2682
vn -0.7059 -0.7028 0.0882
vn 0.9366 -0.3496 0.0260
vn 0.9996 -0.0000 0.0279
vn 0.9956 -0.0001 0.0933
vn 0.9343 -0.3447 0.0903
vn 0.9364 0.3495 0.0308
vn 0.9340 0.3445 0.0944
vn 0.9527 -0.0002 0.3038
vn 0.9032 -0.3207 0.2853
vn 0.9026 0.3202 0.2877
vn 0.9379 -0.3470 0.0009
vn 1.0000 -0.0000 0.0030
vn 0.9379 0.3470 0.0060
vn -0.7318 -0.6760 -0.0864
vn -0.9805 0.0006 -0.1967
vn -0.0000 0.0075 -1.0000
vn -0.0000 -0.9725 -0.2329
vn -0.7323 0.6768 -0.0759
vn -0.0000 0.9758 -0.2185
vn 0.9805 0.0006 -0.1967
vn 0.7318 -0.6760 -0.0864
vn 0.7323 0.6768 -0.0759
vn -0.5066 -0.8604 -0.0548
vn -0.5070 0.8610 -0.0414
vn -0.0000 0.9980 -0.0631
vn 0.5070 0.8610 -0.0414
vn 0.7420 0.6698 -0.0279
vn 0.9019 0.4297 -0.0435
vn 0.9980 -0.0000 -0.0632
vn 0.9017 -0.4295 -0.0501
vn 0.5066 -0.8604 -0.0548
vn 0.7418 -0.6696 -0.0384
vn -0.0000 -0.9969 -0.0786
vn 0.9443 -0.3278 -0.0295
vn 0.9995 -0.0000 -0.0314
vn 0.9998 -0.0000 -0.0178
vn 0.9424 -0.3340 -0.0195
vn 0.9444 0.3279 -0.0244
vn 0.9424 0.3341 -0.0143
vn 1.0000 -0.0000 -0.0089
vn 0.9400 -0.3410 -0.0111
vn 0.9400 0.3410 -0.0059
vn 0.7356 -0.6768 -0.0281
vn 0.7358 0.6770 -0.0176
vn 0.7292 0.6842 -0.0102
vn 0.7219 0.6920 -0.0022
vn 0.7218 -0.6920 -0.0128
vn 0.7291 -0.6841 -0.0207
vn -0.3880 -0.9210 -0.0339
vn -0.0000 -0.9992 -0.0402
vn -0.0000 -0.9997 -0.0239
vn -0.3771 -0.9259 -0.0227
vn 0.3880 -0.9210 -0.0339
vn 0.3771 -0.9259 -0.0227
vn -0.0000 -0.9999 -0.0138
vn -0.3682 -0.9297 -0.0136
vn 0.3682 -0.9297 -0.0136
vn -0.9032 -0.3207 0.2853
vn -0.9527 -0.0002 0.3038
vn -0.9956 -0.0001 0.0933
vn -0.9343 -0.3447 0.0903
vn -0.9026 0.3202 0.2877
vn -0.9340 0.3445 0.0944
vn -0.9996 -0.0000 0.0279
vn -0.9366 -0.3496 0.0260
vn -0.9364 0.3495 0.0308
vn 0.3882 0.9214 -0.0196
vn -0.0000 0.9997 -0.0246
vn -0.0000 1.0000 -0.0084
vn 0.3773 0.9261 -0.0084
vn -0.3882 0.9214 -0.0196
vn -0.3773 0.9261 -0.0084
vn -0.0000 1.0000 0.0015
vn 0.3682 0.9297 0.0006
vn -0.3682 0.9297 0.0006
vt 0.161431 0.231330
vt 0.079566 0.231436
vt 0.465893 0.927463
vt 0.343994 0.927361
vt 0.395026 0.199177
vt 0.436287 0.160530
vt 0.764599 0.878880
vt 0.829472 0.876275
vt 0.797585 0.510523
vt 0.178384 0.828734
vt 0.729650 0.574163
vt 0.050417 0.828890
vt 0.856419 0.576143
vt 0.887199 0.615012
vt 0.863184 0.749991
vt 0.839086 0.850861
vt 0.440063 0.115270
vt 0.069718 0.194446
vt 0.417772 0.117795
vt 0.420568 0.135235
vt 0.144189 0.194631
vt 0.121082 0.176176
vt 0.097585 0.194693
vt 0.815313 0.879594
vt 0.797222 0.881836
vt 0.779001 0.881052
vt 0.439392 0.934587
vt 0.404926 0.938204
vt 0.370471 0.934535
vt 0.384021 0.169855
vt 0.385687 0.148644
vt 0.407222 0.148127
vt 0.481630 0.952531
vt 0.733448 0.937094
vt 0.748562 0.913328
vt 0.758257 0.892981
vt 0.173572 0.933179
vt 0.166278 0.991578
vt 0.509111 0.719435
vt 0.480985 0.880388
vt 0.836921 0.889790
vt 0.848235 0.909244
vt 0.328201 0.952391
vt 0.865265 0.931656
vt 0.638588 0.478593
vt 0.537304 0.367845
vt 0.448265 0.266089
vt 0.370296 0.182344
vt 0.352835 0.178688
vt 0.172051 0.194339
vt 0.349161 0.200601
vt 0.052699 0.672847
vt 0.059522 0.495599
vt 0.069600 0.335300
vt 0.501121 0.216584
vt 0.599274 0.309804
vt 0.705845 0.415597
vt 0.169219 0.335178
vt 0.175959 0.495457
vt 0.179147 0.672693
vt 0.752848 0.854263
vt 0.719970 0.755552
vt 0.830316 0.668299
vt 0.792804 0.635732
vt 0.329199 0.880307
vt 0.302771 0.719393
vt 0.059799 0.991704
vt 0.053338 0.933329
vt 0.147110 0.828748
vt 0.114399 0.828787
vt 0.081691 0.828837
vt 0.019436 0.828941
vt 0.848122 0.463237
vt 0.831084 0.479182
vt 0.814043 0.495126
vt 0.746237 0.558594
vt 0.763601 0.542324
vt 0.780973 0.526065
vt 0.713250 0.589606
vt 0.696300 0.605626
vt 0.679348 0.621703
vt 0.209319 0.828762
vt 0.745531 0.681403
vt 0.202963 0.933436
vt 0.761473 0.665893
vt 0.777426 0.650464
vt 0.788422 0.709424
vt 0.622299 0.806066
vt 0.558539 0.730360
vt 0.192135 0.992041
vt 0.802625 0.695516
vt 0.653869 0.786431
vt 0.816748 0.681547
vt 0.686966 0.768590
vt 0.690999 0.907031
vt 0.517355 0.896557
vt 0.714233 0.886051
vt 0.734130 0.867052
vt 0.365728 0.974957
vt 0.833616 0.948365
vt 0.800273 0.956515
vt 0.404890 0.981209
vt 0.444062 0.975022
vt 0.766373 0.951129
vt 0.822720 0.921360
vt 0.798984 0.925125
vt 0.775012 0.923316
vt 0.817524 0.900201
vt 0.798109 0.903741
vt 0.778463 0.901789
vt 0.689286 0.430764
vt 0.671847 0.446712
vt 0.654794 0.463060
vt 0.582703 0.322252
vt 0.565143 0.335552
vt 0.550762 0.352159
vt 0.482509 0.222361
vt 0.463667 0.229859
vt 0.455085 0.248040
vt 0.872085 0.561739
vt 0.888457 0.546777
vt 0.904923 0.531764
vt 0.023985 0.933610
vt 0.897099 0.760296
vt 0.901282 0.602309
vt 0.916101 0.589069
vt 0.931538 0.775273
vt 0.930847 0.575719
vt 0.964654 0.792064
vt 0.033948 0.992188
vt 0.253314 0.730098
vt 0.858722 0.862068
vt 0.880071 0.879318
vt 0.292783 0.896352
vt 0.904972 0.898220
vt 0.082761 0.933180
vt 0.113449 0.933114
vt 0.144140 0.933095
vt 0.352934 0.714284
vt 0.085771 0.991625
vt 0.113037 0.991662
vt 0.405920 0.712934
vt 0.140303 0.991554
vt 0.458929 0.714271
vt 0.365899 0.876917
vt 0.405081 0.877687
vt 0.444270 0.876943
vt 0.365535 0.108068
vt 0.344308 0.105569
vt 0.345733 0.126599
vt 0.355348 0.091370
vt 0.342272 0.103472
vt 0.329495 0.115710
vt 0.097153 0.115162
vt 0.382677 0.087778
vt 0.280217 0.038802
vt 0.122003 0.088109
vt 0.324443 0.142558
vt 0.146281 0.115097
vt 0.093545 0.325173
vt 0.119612 0.316284
vt 0.145491 0.325102
vt 0.087778 0.492913
vt 0.117800 0.490164
vt 0.147763 0.492831
vt 0.083510 0.672515
vt 0.115931 0.672143
vt 0.148345 0.672427
vt 0.506356 0.199621
vt 0.512773 0.182950
vt 0.530796 0.175628
vt 0.048232 0.324925
vt 0.612007 0.294519
vt 0.625052 0.278844
vt 0.641492 0.266243
vt 0.032433 0.492742
vt 0.721641 0.400291
vt 0.737876 0.384513
vt 0.022533 0.672443
vt 0.754508 0.369106
vt 0.818136 0.848144
vt 0.795849 0.848921
vt 0.773557 0.849891
vt 0.873305 0.627988
vt 0.828406 0.744766
vt 0.791276 0.743914
vt 0.858779 0.641679
vt 0.754284 0.747618
vt 0.844167 0.655276
vt 0.840791 0.590661
vt 0.824539 0.605856
vt 0.808310 0.621077
vt 0.405428 0.293327
vt 0.190800 0.324785
vt 0.413717 0.275862
vt 0.430863 0.270372
vt 0.491193 0.407349
vt 0.203104 0.492580
vt 0.504721 0.391713
vt 0.521204 0.379620
vt 0.589191 0.524318
vt 0.209319 0.672269
vt 0.605558 0.508634
vt 0.622308 0.493393
s 1
f 73/83/1 74/85/2 77/91/3 76/87/4
f 74/85/2 75/86/5 78/93/6 77/91/3
f 76/88/4 77/92/3 80/97/7 79/95/8
f 77/92/3 78/94/6 81/98/9 80/97/7
f 10/10/10 72/82/11 73/84/1 34/37/12
f 72/81/11 71/80/13 74/85/2 73/83/1
f 71/80/13 70/79/14 75/86/5 74/85/2
f 70/79/14 11/11/15 57/64/16 75/86/5
f 75/86/5 57/64/16 56/63/17 78/93/6
f 78/94/6 56/62/17 55/61/18 81/98/9
f 81/98/9 55/61/18 7/7/19 33/36/20
f 80/97/7 81/98/9 33/36/20 32/35/21
f 79/95/8 80/97/7 32/35/21 31/34/22
f 36/40/23 79/96/8 31/33/22 3/3/24
f 35/39/25 76/89/4 79/96/8 36/40/23
f 34/37/12 73/84/1 76/90/4 35/38/25
f 82/100/26 83/101/27 86/106/28 85/105/29
f 83/101/27 84/104/30 87/107/31 86/106/28
f 85/105/29 86/106/28 89/109/32 88/108/33
f 86/106/28 87/107/31 90/110/34 89/109/32
f 4/4/35 27/29/36 82/99/26 39/43/37
f 27/29/36 26/28/38 83/102/27 82/99/26
f 26/28/38 25/27/39 84/103/30 83/102/27
f 25/27/39 3/3/24 31/33/22 84/103/30
f 84/104/30 31/34/22 32/35/21 87/107/31
f 87/107/31 32/35/21 33/36/20 90/110/34
f 90/110/34 33/36/20 7/7/19 24/26/40
f 89/109/32 90/110/34 24/26/40 23/25/41
f 88/108/33 89/109/32 23/25/41 22/24/42
f 37/41/43 88/108/33 22/24/42 8/8/44
f 38/42/45 85/105/29 88/108/33 37/41/43
f 39/44/37 82/100/26 85/105/29 38/42/45
f 91/111/46 92/112/47 95/115/48 94/114/49
f 92/112/47 93/113/50 96/116/51 95/115/48
f 94/114/49 95/115/48 98/118/52 97/117/53
f 95/115/48 96/116/51 99/119/54 98/118/52
f 9/9/55 69/78/56 91/111/46 51/57/57
f 69/78/56 68/77/58 92/112/47 91/111/46
f 68/77/58 67/76/59 93/113/50 92/112/47
f 67/76/59 11/11/15 40/45/60 93/113/50
f 93/113/50 40/45/60 41/46/61 96/116/51
f 96/116/51 41/46/61 42/47/62 99/119/54
f 99/119/54 42/47/62 5/5/63 28/30/64
f 98/118/52 99/119/54 28/30/64 29/31/65
f 97/117/53 98/118/52 29/31/65 30/32/66
f 49/55/67 97/117/53 30/32/66 6/6/68
f 50/56/69 94/114/49 97/117/53 49/55/67
f 51/57/57 91/111/46 94/114/49 50/56/69
f 100/120/70 101/121/71 104/126/72 103/125/73
f 101/121/71 102/122/74 105/128/75 104/126/72
f 103/124/73 104/127/72 107/133/76 106/132/77
f 104/127/72 105/129/75 108/135/78 107/133/76
f 9/9/55 66/75/79 100/120/70 13/13/80
f 66/75/79 65/74/81 101/121/71 100/120/70
f 65/74/81 64/73/82 102/122/74 101/121/71
f 64/72/82 12/12/83 60/68/84 102/123/74
f 102/123/74 60/68/84 59/67/85 105/130/75
f 105/131/75 59/66/85 58/65/86 108/134/78
f 108/134/78 58/65/86 4/4/35 39/43/37
f 107/133/76 108/135/78 39/44/37 38/42/45
f 106/132/77 107/133/76 38/42/45 37/41/43
f 15/16/87 106/132/77 37/41/43 8/8/44
f 14/15/88 103/124/73 106/132/77 15/16/87
f 13/13/80 100/120/70 103/125/73 14/14/88
f 109/136/89 110/137/90 113/141/91 112/140/92
f 110/137/90 111/138/93 114/143/94 113/141/91
f 112/139/92 113/142/91 116/146/95 115/145/96
f 113/142/91 114/144/94 117/147/97 116/146/95
f 12/12/83 63/71/98 109/136/89 60/68/84
f 63/71/98 62/70/99 110/137/90 109/136/89
f 62/70/99 61/69/100 111/138/93 110/137/90
f 61/69/100 10/10/10 34/37/12 111/138/93
f 111/138/93 34/37/12 35/38/25 114/143/94
f 114/144/94 35/39/25 36/40/23 117/147/97
f 117/147/97 36/40/23 3/3/24 25/27/39
f 116/146/95 117/147/97 25/27/39 26/28/38
f 115/145/96 116/146/95 26/28/38 27/29/36
f 58/65/86 115/145/96 27/29/36 4/4/35
f 59/66/85 112/139/92 115/145/96 58/65/86
f 60/68/84 109/136/89 112/140/92 59/67/85
f 118/148/101 119/149/102 122/152/103 121/151/104
f 119/149/102 120/150/105 123/153/106 122/152/103
f 121/151/104 122/152/103 125/156/107 124/155/108
f 122/152/103 123/153/106 126/158/109 125/156/107
f 6/6/68 30/32/66 118/148/101 18/20/110
f 30/32/66 29/31/65 119/149/102 118/148/101
f 29/31/65 28/30/64 120/150/105 119/149/102
f 28/30/64 5/5/63 43/48/111 120/150/105
f 120/150/105 43/48/111 44/49/112 123/153/106
f 123/153/106 44/49/112 45/51/113 126/158/109
f 126/159/109 45/50/113 1/1/114 19/21/115
f 125/157/107 126/159/109 19/21/115 20/22/116
f 124/154/108 125/157/107 20/22/116 21/23/117
f 16/18/118 124/154/108 21/23/117 2/2/119
f 17/19/120 121/151/104 124/155/108 16/17/118
f 18/20/110 118/148/101 121/151/104 17/19/120
f 127/160/121 128/161/122 131/164/123 130/163/124
f 128/161/122 129/162/125 132/165/126 131/164/123
f 130/163/124 131/164/123 134/167/127 133/166/128
f 131/164/123 132/165/126 135/168/129 134/167/127
f 2/2/119 21/23/117 127/160/121 48/54/130
f 21/23/117 20/22/116 128/161/122 127/160/121
f 20/22/116 19/21/115 129/162/125 128/161/122
f 19/21/115 1/1/114 52/58/131 129/162/125
f 129/162/125 52/58/131 53/59/132 132/165/126
f 132/165/126 53/59/132 54/60/133 135/168/129
f 135/168/129 54/60/133 10/10/10 61/69/100
f 134/167/127 135/168/129 61/69/100 62/70/99
f 133/166/128 134/167/127 62/70/99 63/71/98
f 46/52/134 133/166/128 63/71/98 12/12/83
f 47/53/135 130/163/124 133/166/128 46/52/134
f 48/54/130 127/160/121 130/163/124 47/53/135
f 136/169/136 137/170/137 140/174/138 139/173/139
f 137/170/137 138/171/140 141/175/141 140/174/138
f 139/173/139 140/174/138 143/178/142 142/177/143
f 140/174/138 141/175/141 144/180/144 143/178/142
f 6/6/68 18/20/110 136/169/136 49/55/67
f 18/20/110 17/19/120 137/170/137 136/169/136
f 17/19/120 16/17/118 138/171/140 137/170/137
f 16/18/118 2/2/119 48/54/130 138/172/140
f 138/172/140 48/54/130 47/53/135 141/176/141
f 141/176/141 47/53/135 46/52/134 144/179/144
f 144/179/144 46/52/134 12/12/83 64/72/82
f 143/178/142 144/180/144 64/73/82 65/74/81
f 142/177/143 143/178/142 65/74/81 66/75/79
f 51/57/57 142/177/143 66/75/79 9/9/55
f 50/56/69 139/173/139 142/177/143 51/57/57
f 49/55/67 136/169/136 139/173/139 50/56/69
f 145/181/145 146/182/146 149/186/147 148/185/148
f 146/182/146 147/183/149 150/188/150 149/186/147
f 148/184/148 149/187/147 152/191/151 151/190/152
f 149/187/147 150/189/150 153/192/153 152/191/151
f 8/8/44 22/24/42 145/181/145 15/16/87
f 22/24/42 23/25/41 146/182/146 145/181/145
f 23/25/41 24/26/40 147/183/149 146/182/146
f 24/26/40 7/7/19 55/61/18 147/183/149
f 147/183/149 55/61/18 56/62/17 150/188/150
f 150/189/150 56/63/17 57/64/16 153/192/153
f 153/192/153 57/64/16 11/11/15 67/76/59
f 152/191/151 153/192/153 67/76/59 68/77/58
f 151/190/152 152/191/151 68/77/58 69/78/56
f 13/13/80 151/190/152 69/78/56 9/9/55
f 14/14/88 148/184/148 151/190/152 13/13/80
f 15/16/87 145/181/145 148/185/148 14/15/88
f 154/193/154 155/195/155 158/199/156 157/197/157
f 155/195/155 156/196/158 159/200/159 158/199/156
f 157/197/157 158/199/156 161/203/160 160/201/161
f 158/199/156 159/200/159 162/204/162 161/203/160
f 1/1/114 45/50/113 154/194/154 52/58/131
f 45/51/113 44/49/112 155/195/155 154/193/154
f 44/49/112 43/48/111 156/196/158 155/195/155
f 43/48/111 5/5/63 42/47/62 156/196/158
f 156/196/158 42/47/62 41/46/61 159/200/159
f 159/200/159 41/46/61 40/45/60 162/204/162
f 162/204/162 40/45/60 11/11/15 70/79/14
f 161/203/160 162/204/162 70/79/14 71/80/13
f 160/201/161 161/203/160 71/80/13 72/81/11
f 54/60/133 160/202/161 72/82/11 10/10/10
f 53/59/132 157/198/157 160/202/161 54/60/133
f 52/58/131 154/194/154 157/198/157 53/59/132
